# xmcd CD database file
#
# Track frame offsets:
#	182
#	16450
#	29805
#	54315
#	77162
#	92055
#	107732
#	125547
#	140557
#	154152
#	168210
#	182362
#	203377
#	219552
#	241585
#	254510
#	269712
#	285397
#	301400
#	316287
#	332070
#
# Disc length: 4652 seconds
#
# Revision: 6
# Processed by: cddbd v1.5.2PL0 Copyright (c) Steve Scherf et al.
# Submitted via: CDex 1.51
#
DISCID=25122a15
DTITLE=Various Artist - Soul Train - Hall Of Fame - 20th Anniversary (Volume 1)
DYEAR=1994
DGENRE=Soul
TTITLE0=TSOP (The Sound Of Philadelphia) - MFSB (featuring The Three Degrees)
TTITLE1=Cold Sweat (Part 1) - James Brown and The Famous Flames
TTITLE2=The Thrill Is Gone - B.B. King
TTITLE3=Love And Happiness - Al Green
TTITLE4=I'll Take You There - The Staple Singers 
TTITLE5=If You Don't Know Me By Now - Harold Melvin and The Blue Notes
TTITLE6=Lean On Me - Bill Withers
TTITLE7=Oh Girl - The Chi-Lites
TTITLE8=Love Train - The O'Jays
TTITLE9=Yes We Can Can - Pointer Sisters
TTITLE10=Ain't No Woman (Like The One I've Got) - Four Tops
TTITLE11=Midnight Train To Georgia - Gladys Knight and The Pips
TTITLE12=Love Don't Love Nobody (Pt. I) - Spinners
TTITLE13=Reasons - Earth, Wind and Fire
TTITLE14=This Will Be - Natalie Cole
TTITLE15=Fight The Power (Part 1) - The Isley Brothers
TTITLE16=Something He Can Feel - Aretha Franklin
TTITLE17=You'll Never Find Another Love Like Mine - Lou Rawls
TTITLE18=Sweet Thing - Rufus (featuring Chaka Khan)
TTITLE19=I'll Be Good To You - The Brothers Johnson
TTITLE20=Tear The Roof Off The Sucker (Give Up The Funk) - Parliament
EXTD=YEAR: 1994
EXTT0=
EXTT1=
EXTT2=
EXTT3=
EXTT4=
EXTT5=
EXTT6=
EXTT7=
EXTT8=
EXTT9=
EXTT10=
EXTT11=
EXTT12=
EXTT13=
EXTT14=
EXTT15=
EXTT16=
EXTT17=
EXTT18=
EXTT19=
EXTT20=
PLAYORDER=
